<?xml version="1.0" encoding="UTF-8"?>
<svg width="2048" height="2048" viewBox="0 0 2048 2048" xmlns="http://www.w3.org/2000/svg">
  <!-- <rect width="2048" height="2048" fill="url(#bg)"/> -->
  <g transform="translate(1024 900) scale(1.5)">
    <ellipse cx="0" cy="0" rx="220" ry="260" fill="#111827"/>
    <ellipse cx="0" cy="40" rx="150" ry="200" fill="#F9FAFB"/>
    <ellipse cx="-200" cy="10" rx="40" ry="120" fill="#0F172A" transform="rotate(-25 -200 10)"/>
    <ellipse cx="200" cy="10" rx="40" ry="120" fill="#0F172A" transform="rotate(25 200 10)"/>
    <ellipse cx="-70" cy="250" rx="60" ry="26" fill="#F59E0B"/>
    <ellipse cx="70" cy="250" rx="60" ry="26" fill="#F59E0B"/>
  </g>
  <g transform="translate(1024 560) scale(1.5)">
    <circle cx="0" cy="0" r="140" fill="#111827"/>
    <circle cx="-48" cy="-10" r="22" fill="#FFFFFF"/>
    <circle cx="48" cy="-10" r="22" fill="#FFFFFF"/>
    <circle cx="-48" cy="-10" r="10" fill="#111827"/>
    <circle cx="48" cy="-10" r="10" fill="#111827"/>
    <polygon points="0,10 36,64 -36,64" fill="#F59E0B"/>
  </g>
</svg>
